<?xml version="1.0" standalone="no"?><!DOCTYPE svg PUBLIC "-//W3C//DTD SVG 1.1//EN" "http://www.w3.org/Graphics/SVG/1.1/DTD/svg11.dtd"><svg class="icon" width="200px" height="200.00px" viewBox="0 0 1024 1024" version="1.1" xmlns="http://www.w3.org/2000/svg"><path fill="#333" d="M512 992c-264.64 0-480-215.296-480-480 0-264.704 215.296-480 480-480 264.704 0 480 215.296 480 480C992 776.704 776.704 992 512 992zM512 91.712C280.192 91.712 91.712 280.256 91.712 512c0 231.744 188.48 420.224 420.224 420.224 231.808 0 420.288-188.48 420.288-420.224C932.224 280.256 743.744 91.712 512 91.712z"  /><path fill="#333" d="M207.232 390.08l609.472 0 0 60.992-609.472 0 0-60.992Z"  /><path fill="#333" d="M207.232 572.928l609.472 0 0 60.928-609.472 0 0-60.928Z"  /></svg>