<?xml version="1.0" standalone="no"?><!DOCTYPE svg PUBLIC "-//W3C//DTD SVG 1.1//EN" "http://www.w3.org/Graphics/SVG/1.1/DTD/svg11.dtd"><svg class="icon" width="200px" height="200.00px" viewBox="0 0 1024 1024" version="1.1" xmlns="http://www.w3.org/2000/svg"><path d="M511.999 512.14m-446.841 0a446.841 446.841 0 1 0 893.682 0 446.841 446.841 0 1 0-893.682 0Z" fill="#F15A29" /><path d="M296.112 728.032l230.577 230.577c235.082-7.611 424.174-196.705 431.779-431.788L727.895 296.248 296.112 728.032z" fill="#CC4729" /><path d="M366.297 512.14c0-80.469 65.232-145.702 145.702-145.702s145.703 65.233 145.703 145.702c0 80.47-65.233 145.703-145.703 145.703S366.297 592.61 366.297 512.14z m159.047-210.236v-81.739c0-7.372-5.978-13.346-13.346-13.346s-13.346 5.974-13.346 13.346v81.739c0 7.373 5.978 13.346 13.346 13.346s13.346-5.973 13.346-13.346z m144.745 71.013l57.805-57.797c5.214-5.209 5.214-13.659 0-18.872-5.213-5.213-13.658-5.213-18.872 0l-57.805 57.797c-5.214 5.208-5.214 13.658 0 18.872 2.606 2.607 6.021 3.909 9.435 3.909s6.831-1.302 9.437-3.909z m-297.309 0c5.214-5.209 5.214-13.663 0-18.872l-57.796-57.797c-5.214-5.213-13.659-5.213-18.872 0-5.214 5.208-5.214 13.663 0 18.872l57.797 57.797a13.298 13.298 0 0 0 9.435 3.909 13.294 13.294 0 0 0 9.436-3.909zM817.318 512.14c0-7.372-5.978-13.346-13.346-13.346H722.23c-7.368 0-13.346 5.974-13.346 13.346s5.978 13.346 13.346 13.346h81.743c7.368 0 13.345-5.974 13.345-13.346z m-89.423 215.892c5.214-5.214 5.214-13.663 0-18.872l-57.805-57.797c-5.214-5.214-13.659-5.214-18.872 0-5.214 5.213-5.214 13.663 0 18.872l57.805 57.797c2.607 2.606 6.022 3.909 9.436 3.909s6.83-1.303 9.436-3.909z m-202.551 76.082v-81.739c0-7.372-5.978-13.346-13.346-13.346s-13.346 5.974-13.346 13.346v81.739c0 7.373 5.978 13.346 13.346 13.346s13.346-5.973 13.346-13.346z m-210.36-76.082l57.796-57.797c5.214-5.209 5.214-13.663 0-18.872-5.213-5.214-13.658-5.214-18.871 0l-57.797 57.797c-5.214 5.208-5.214 13.663 0 18.872a13.302 13.302 0 0 0 9.435 3.909 13.303 13.303 0 0 0 9.437-3.909z m0.129-215.892c0-7.372-5.978-13.346-13.346-13.346h-81.743c-7.368 0-13.346 5.974-13.346 13.346s5.978 13.346 13.346 13.346h81.743c7.368 0 13.346-5.974 13.346-13.346z" fill="#F7E100" /></svg>